<svg width="149" height="81" viewBox="0 0 149 81" fill="none" xmlns="http://www.w3.org/2000/svg">
<path fill-rule="evenodd" clip-rule="evenodd" d="M28.7372 0.549699C28.1499 0.76426 27.0242 1.80612 26.6141 2.51428C26.4201 2.84972 26.2186 4.97566 26.1347 7.57467L25.9901 12.0567L20.3514 12.2172C17.2501 12.3054 14.674 12.4028 14.6265 12.4341C14.5791 12.465 14.3677 12.9005 14.1572 13.4016C13.6156 14.6896 13.9675 15.7152 15.1612 16.3271C16.0822 16.799 17.2741 16.8323 30.7142 16.7609L45.2699 16.6834L45.9677 15.872C46.8236 14.8769 46.8542 13.9652 46.066 12.9633L45.4668 12.2013H38.1139H30.7613V8.58674V4.97218H69.0771H107.393L107.319 35.1176L107.245 65.263L90.3935 65.3376C77.0604 65.3966 73.5149 65.3362 73.4149 65.0485C72.0717 61.1847 70.8572 59.3311 68.4904 57.5328C64.7321 54.677 59.3499 54.2505 55.0104 56.4643C52.3859 57.8032 49.9818 60.7096 48.9313 63.8135L48.4406 65.263L39.6008 65.3394L30.7613 65.416V58.7609V52.106H34.6651C38.1833 52.106 38.626 52.0488 39.1471 51.5277C40.0265 50.6484 40.0123 49.1219 39.1162 48.2023C38.5665 47.6382 38.1721 47.624 22.9209 47.624H7.28897L6.59093 48.4354C5.735 49.4304 5.70435 50.3421 6.49261 51.3441L7.09176 52.106H16.6134H26.1347V60.3151C26.1347 67.9653 26.1723 68.5708 26.6873 69.207L27.2396 69.8897L37.8606 70.0343L48.4816 70.1788L48.8272 71.3355C50.175 75.8479 54.1354 79.3089 58.9538 80.1845C64.7781 81.2434 71.2765 77.3062 72.9166 71.725L73.4131 70.0351L94.3952 70.0345L115.377 70.0343L115.746 71.4743C116.545 74.5903 119.25 77.6598 122.517 79.1551C129.346 82.2818 137.247 78.8917 139.753 71.7591L140.308 70.1788L143.019 70.0343C146.026 69.8738 146.926 69.4846 147.897 67.9222C148.441 67.046 148.467 66.5536 148.389 58.4677C148.308 50.0726 148.295 49.9098 147.573 48.2023C147.17 47.2481 143.944 41.2624 140.406 34.9007C133.639 22.735 132.774 21.4965 130.632 20.9017C129.946 20.7111 126.122 20.5897 120.779 20.5888L112.048 20.5871L111.96 11.8398C111.873 3.21204 111.863 3.0796 111.199 2.14849C109.818 0.212244 112.923 0.343236 69.0178 0.368393C47.102 0.380827 28.9758 0.462661 28.7372 0.549699ZM27.4359 21.8039C26.1914 22.5175 26.1535 22.7596 26.144 30.0572L26.1347 37.0695H22.6517C19.339 37.0695 19.1337 37.1042 18.4588 37.7794C17.5196 38.7183 17.5196 40.0473 18.4588 40.9862L19.1684 41.6961H40.3963C61.4339 41.6961 61.6308 41.6906 62.3858 41.0967C63.4621 40.2503 63.4621 38.5153 62.3858 37.6689C61.6366 37.0796 61.3663 37.0695 46.1926 37.0695H30.7613V30.1073V23.145L29.9161 22.2998C29.0154 21.3991 28.3676 21.2695 27.4359 21.8039ZM1.33102 25.3748C0.342368 26.067 0.419864 28.1415 1.46519 28.9636C2.22281 29.5596 2.4579 29.5726 11.0334 29.4908L19.8248 29.4066L20.3771 28.7239C21.1443 27.7763 21.0911 26.3337 20.2606 25.5532C19.6036 24.9361 19.4287 24.9246 10.7824 24.9246C3.27768 24.9246 1.87841 24.9911 1.33102 25.3748ZM129.837 25.7565C130.792 26.8715 142.993 49.1262 143.401 50.496C143.721 51.5717 143.825 53.5805 143.825 58.6785V65.4351L142.069 65.3492L140.313 65.263L139.823 63.8135C137.641 57.3529 131.096 53.7583 124.584 55.4436C120.416 56.5222 116.86 59.9609 115.625 64.1064C115.281 65.2622 115.279 65.263 113.649 65.3498L112.017 65.4365V45.3251V25.2137H120.694C128.825 25.2137 129.402 25.2478 129.837 25.7565ZM63.4118 60.0774C65.1951 60.6069 67.238 62.3436 68.1263 64.085C68.9516 65.7026 69.1274 68.4262 68.5239 70.243C67.897 72.131 66.339 73.918 64.4889 74.8711C62.6828 75.8019 59.6469 75.9176 57.8512 75.1244C56.1838 74.3879 54.3271 72.5153 53.6091 70.8459C52.8177 69.0066 52.883 65.9073 53.7511 64.1188C54.9529 61.6424 58.0111 59.6741 60.7096 59.6394C61.3567 59.631 62.5726 59.8282 63.4118 60.0774ZM130.619 60.2096C136.118 62.2667 137.531 69.6453 133.177 73.5699C131.517 75.0669 130.139 75.6044 127.921 75.6209C123.452 75.6539 120.174 72.6191 119.889 68.1848C119.724 65.6071 120.424 63.7611 122.245 61.9738C124.518 59.7432 127.624 59.0888 130.619 60.2096Z" fill="#9F5830"/>
</svg>
