<svg width="80" height="81" viewBox="0 0 80 81" fill="none" xmlns="http://www.w3.org/2000/svg">
<path fill-rule="evenodd" clip-rule="evenodd" d="M36.5516 0.569473C23.905 1.90322 13.1203 10.6845 9.21674 22.8263C7.33549 28.6776 7.21268 35.1449 8.86659 41.276C9.54159 43.7785 11.0538 47.2626 12.3355 49.2681C12.6249 49.721 12.8589 50.1781 12.8558 50.2837C12.8527 50.3895 10.0485 54.5542 6.62424 59.5385C3.19987 64.5229 0.408618 68.6138 0.421431 68.6295C0.434087 68.6451 3.63706 68.0629 7.53909 67.3357C11.441 66.6085 14.6821 66.0684 14.7414 66.1354C14.8008 66.2024 15.4286 69.3862 16.1364 73.2104C16.8444 77.0346 17.4517 80.1928 17.4863 80.2287C17.5664 80.3117 16.8231 81.3762 23.4775 71.6479C26.6811 66.9643 29.3132 63.1195 29.3266 63.1038C29.3399 63.0882 30.0528 63.2842 30.9108 63.5392C34.1038 64.4885 35.6747 64.6896 39.8928 64.6896C43.1892 64.6896 43.9713 64.6418 45.523 64.3454C47.0472 64.0543 49.3377 63.4673 50.2053 63.1457C50.3764 63.0823 51.9924 65.3268 56.1897 71.4582C59.3522 76.0779 62.0027 79.9596 62.0796 80.0842C62.1566 80.2088 62.2513 80.2776 62.29 80.2371C62.3288 80.1967 62.9394 77.0346 63.6469 73.2104C64.3544 69.3862 64.9844 66.2006 65.0469 66.1312C65.1096 66.0618 68.3524 66.6007 72.2533 67.3287C76.1542 68.0567 79.3553 68.6407 79.3667 68.6267C79.3782 68.6126 76.5858 64.5229 73.1614 59.5385C69.7372 54.5542 66.933 50.3895 66.9299 50.2837C66.9267 50.1781 67.1608 49.721 67.4502 49.2681C68.8844 47.0238 70.2914 43.6643 71.063 40.6418C74.7597 26.1601 68.1503 11.2282 54.8928 4.11088C49.6094 1.27447 42.635 -0.0722455 36.5516 0.569473ZM44.6163 5.54572C58.0321 7.84775 67.8674 19.9568 67.34 33.5229C67.0652 40.5938 64.4672 46.6912 59.5935 51.7037C54.2349 57.2148 47.4719 60.0788 39.8147 60.0795C32.5217 60.0801 25.81 57.2943 20.5464 52.0818C13.1274 44.7346 10.523 33.8806 13.7966 23.9512C14.4574 21.9468 16.2549 18.4059 17.4642 16.726C22.1317 10.2431 29.1333 6.16197 37.1585 5.24682C38.9661 5.04072 42.4977 5.18229 44.6163 5.54572ZM43.6811 30.1249L34.1127 39.6934L30.2838 35.867L26.455 32.0406L24.8146 33.681L23.1742 35.3215L28.6825 40.8282L34.191 46.3349L45.4024 35.1228L56.6138 23.9104L54.9317 22.2335L53.2496 20.5565L43.6811 30.1249ZM17.5491 55.7656C19.3319 57.4768 21.7525 59.3204 23.5836 60.3618C24.2985 60.7684 24.8664 61.1582 24.8458 61.2281C24.7388 61.5896 20.1128 68.1768 20.0306 68.0845C19.9777 68.0248 19.6286 66.3062 19.2552 64.2651C18.7242 61.3642 18.5247 60.5542 18.3406 60.5542C18.1378 60.5542 11.8827 61.6912 11.0949 61.8713C10.9396 61.9068 10.8374 61.8612 10.8678 61.7699C10.9392 61.5556 15.8894 54.3118 15.9675 54.3074C16 54.3057 16.7117 54.9618 17.5491 55.7656ZM66.3699 57.9574C67.7408 59.9631 68.8875 61.6787 68.9178 61.7699C68.9483 61.8612 68.8461 61.9051 68.6908 61.8676C67.9906 61.6987 61.696 60.5542 61.4664 60.5542C61.2544 60.5542 61.0911 61.2017 60.5305 64.2651C60.1571 66.3062 59.808 68.0248 59.755 68.0845C59.6728 68.1768 55.0469 61.5896 54.9399 61.2281C54.9192 61.1582 55.5041 60.7587 56.2397 60.3401C58.1377 59.2603 60.3919 57.5404 62.1813 55.807C63.028 54.9867 63.7561 54.3143 63.7991 54.3131C63.8421 54.3118 64.9989 55.9518 66.3699 57.9574Z" fill="#9F5830"/>
</svg>
