<svg width="81" height="81" viewBox="0 0 81 81" fill="none" xmlns="http://www.w3.org/2000/svg">
<path fill-rule="evenodd" clip-rule="evenodd" d="M36.5931 0.448481C29.0069 1.2346 21.823 4.12718 15.7093 8.85724C13.9744 10.1995 10.2649 13.909 8.92262 15.644C6.4595 18.8276 4.08845 23.0698 2.76357 26.6639C2.02207 28.6754 1.08611 32.4078 0.721937 34.8054C0.321595 37.4403 0.321125 43.2812 0.720998 45.9217C1.07907 48.2867 2.02567 52.046 2.77359 54.0734C4.11068 57.6981 6.46013 61.9035 8.92434 65.0832C10.1979 66.7267 13.7756 70.3449 15.3782 71.6103C18.6133 74.1646 23.0176 76.6534 26.7191 78.0189C28.7497 78.7681 32.5092 79.7142 34.8708 80.0706C37.1847 80.4197 43.1949 80.4716 45.3608 80.1609C52.9008 79.08 59.2709 76.4094 65.1666 71.858C66.7759 70.6157 70.3956 67.0315 71.6743 65.4143C74.1983 62.2224 76.7439 57.7194 78.0857 54.0734C78.8336 52.0413 79.7796 48.2815 80.1369 45.9217C80.3505 44.5114 80.4214 43.1256 80.4214 40.3636C80.4214 36.1283 80.2069 34.3268 79.2553 30.5679C78.4995 27.5828 77.8055 25.7039 76.3669 22.7498C73.2949 16.4412 68.5387 11.0172 62.5832 7.03072C57.5868 3.68645 52.2299 1.62555 46.0654 0.676443C44.0975 0.373329 38.5952 0.241029 36.5931 0.448481ZM43.6386 5.13751C55.9253 6.2637 66.8044 13.7993 72.2179 24.9336C73.868 28.3276 74.8048 31.33 75.4452 35.2751C75.8354 37.68 75.8354 43.0471 75.4452 45.452C74.8048 49.3972 73.868 52.3995 72.2179 55.7936C68.7244 62.9788 63.0556 68.6456 55.8508 72.1545C52.4704 73.801 49.4638 74.7393 45.5174 75.3798C43.1106 75.7703 37.7444 75.7702 35.3405 75.3794C28.5663 74.2781 22.683 71.6128 17.5701 67.3295C9.77403 60.7979 5.04507 50.6165 5.04507 40.3636C5.04507 30.1062 9.75132 19.9716 17.5701 13.3922C24.8352 7.27873 34.3003 4.28156 43.6386 5.13751ZM39.2956 10.1558C38.2334 10.7166 38.0804 11.2671 38.0804 14.53C38.0804 17.8243 38.2306 18.3515 39.3289 18.9118C40.1114 19.3111 40.7465 19.3111 41.529 18.9118C42.6273 18.3515 42.7775 17.8243 42.7775 14.53C42.7775 12.0019 42.7438 11.6332 42.4623 11.0814C41.8846 9.94898 40.4703 9.53564 39.2956 10.1558ZM19.3301 18.4434C17.7435 19.4107 17.8346 21.6547 19.4943 22.4903C20.4947 22.9938 21.2988 22.857 22.1106 22.0452C22.9224 21.2334 23.0592 20.4293 22.5557 19.429C21.9398 18.2057 20.461 17.7537 19.3301 18.4434ZM59.2145 18.4235C58.4347 18.8417 57.8973 19.9316 58.0437 20.7985C58.1943 21.6898 59.0997 22.5977 59.9876 22.7477C60.8603 22.8951 61.974 22.3499 62.3769 21.578C63.457 19.5082 61.2666 17.3233 59.2145 18.4235ZM39.2956 24.2469C38.9378 24.4358 38.5877 24.7959 38.3953 25.1731C38.0928 25.7662 38.0804 26.0856 38.0804 33.3196C38.0804 39.9008 38.1119 40.9119 38.3303 41.3499C38.6751 42.041 52.7375 56.1258 53.4569 56.5005C53.7765 56.6669 54.2548 56.8031 54.52 56.8031C55.2969 56.8031 56.1989 56.2494 56.5533 55.5547C56.9491 54.7787 56.9529 54.1346 56.5659 53.3915C56.3996 53.0721 53.2291 49.7814 49.5203 46.0789L42.7775 39.3473V32.5689C42.7775 26.0842 42.7638 25.7635 42.4623 25.1725C41.8846 24.04 40.4703 23.6267 39.2956 24.2469ZM11.1135 38.3379C10.4524 38.6869 9.89834 39.6106 9.89834 40.3636C9.89834 41.1405 10.4521 42.0424 11.1468 42.3969C11.6986 42.6784 12.0673 42.7121 14.5954 42.7121C17.8897 42.7121 18.4169 42.5619 18.9772 41.4636C19.3765 40.6811 19.3765 40.0461 18.9772 39.2635C18.4143 38.1604 17.8936 38.014 14.5625 38.022C12.0217 38.0281 11.6329 38.0638 11.1135 38.3379ZM62.7806 38.3379C62.1196 38.6869 61.5655 39.6106 61.5655 40.3636C61.5655 41.1405 62.1193 42.0424 62.814 42.3969C63.3657 42.6784 63.7345 42.7121 66.2625 42.7121C68.7906 42.7121 69.1593 42.6784 69.7111 42.3969C70.4058 42.0424 70.9596 41.1405 70.9596 40.3636C70.9596 39.5867 70.4058 38.6847 69.7111 38.3302C69.1567 38.0475 68.7988 38.0159 66.2297 38.022C63.6889 38.0281 63.3001 38.0638 62.7806 38.3379ZM19.4654 58.2442C18.2719 58.8813 17.8336 60.3553 18.5088 61.4624C19.464 63.0292 21.6796 62.9548 22.5483 61.3271C23.6092 59.3391 21.4535 57.1833 19.4654 58.2442ZM59.5853 58.0701C59.3141 58.1487 58.8809 58.4537 58.6225 58.7479C57.2905 60.2651 58.3611 62.5974 60.3888 62.5955C62.7642 62.5933 63.5242 59.3389 61.4033 58.2514C60.6693 57.875 60.364 57.8446 59.5853 58.0701ZM39.2956 61.823C38.2334 62.3838 38.0804 62.9343 38.0804 66.1972C38.0804 68.7253 38.1141 69.094 38.3956 69.6457C38.7501 70.3404 39.6521 70.8942 40.429 70.8942C41.2058 70.8942 42.1078 70.3404 42.4623 69.6457C42.7438 69.094 42.7775 68.7253 42.7775 66.1972C42.7775 63.6691 42.7438 63.3004 42.4623 62.7486C41.8846 61.6162 40.4703 61.2028 39.2956 61.823Z" fill="#9F5830"/>
</svg>
