<svg width="120" height="23" viewBox="0 0 120 23" fill="none" xmlns="http://www.w3.org/2000/svg">
<path d="M50.3931 11.8781H47.7651V17.4221H46.0011V4.82212H47.7651V10.2941H50.4291L54.3891 4.82212H56.3151L51.8151 10.9241L56.5311 17.4221H54.4791L50.3931 11.8781ZM61.6131 7.79212C62.9331 7.79212 63.9411 8.11612 64.6371 8.76412C65.3451 9.41212 65.6991 10.3781 65.6991 11.6621V17.4221H64.0611V16.1621C63.7731 16.6061 63.3591 16.9481 62.8191 17.1881C62.2911 17.4161 61.6611 17.5301 60.9291 17.5301C59.8611 17.5301 59.0031 17.2721 58.3551 16.7561C57.7191 16.2401 57.4011 15.5621 57.4011 14.7221C57.4011 13.8821 57.7071 13.2101 58.3191 12.7061C58.9311 12.1901 59.9031 11.9321 61.2351 11.9321H63.9711V11.5901C63.9711 10.8461 63.7551 10.2761 63.3231 9.88012C62.8911 9.48412 62.2551 9.28612 61.4151 9.28612C60.8511 9.28612 60.2991 9.38212 59.7591 9.57412C59.2191 9.75412 58.7631 10.0001 58.3911 10.3121L57.6711 9.01612C58.1631 8.62012 58.7511 8.32012 59.4351 8.11612C60.1191 7.90012 60.8451 7.79212 61.6131 7.79212ZM61.2171 16.1981C61.8771 16.1981 62.4471 16.0541 62.9271 15.7661C63.4071 15.4661 63.7551 15.0461 63.9711 14.5061V13.1741H61.3071C59.8431 13.1741 59.1111 13.6661 59.1111 14.6501C59.1111 15.1301 59.2971 15.5081 59.6691 15.7841C60.0411 16.0601 60.5571 16.1981 61.2171 16.1981ZM75.9207 9.39412H72.4287V17.4221H70.7007V9.39412H67.2087V7.88212H75.9207V9.39412ZM81.0897 7.79212C82.4097 7.79212 83.4177 8.11612 84.1137 8.76412C84.8217 9.41212 85.1757 10.3781 85.1757 11.6621V17.4221H83.5377V16.1621C83.2497 16.6061 82.8357 16.9481 82.2957 17.1881C81.7677 17.4161 81.1377 17.5301 80.4057 17.5301C79.3377 17.5301 78.4797 17.2721 77.8317 16.7561C77.1957 16.2401 76.8777 15.5621 76.8777 14.7221C76.8777 13.8821 77.1837 13.2101 77.7957 12.7061C78.4077 12.1901 79.3797 11.9321 80.7117 11.9321H83.4477V11.5901C83.4477 10.8461 83.2317 10.2761 82.7997 9.88012C82.3677 9.48412 81.7317 9.28612 80.8917 9.28612C80.3277 9.28612 79.7757 9.38212 79.2357 9.57412C78.6957 9.75412 78.2397 10.0001 77.8677 10.3121L77.1477 9.01612C77.6397 8.62012 78.2277 8.32012 78.9117 8.11612C79.5957 7.90012 80.3217 7.79212 81.0897 7.79212ZM80.6937 16.1981C81.3537 16.1981 81.9237 16.0541 82.4037 15.7661C82.8837 15.4661 83.2317 15.0461 83.4477 14.5061V13.1741H80.7837C79.3197 13.1741 78.5877 13.6661 78.5877 14.6501C78.5877 15.1301 78.7737 15.5081 79.1457 15.7841C79.5177 16.0601 80.0337 16.1981 80.6937 16.1981ZM96.4773 7.88212V17.4221H94.7493V9.39412H90.6453L90.5373 11.5181C90.4773 12.8021 90.3633 13.8761 90.1953 14.7401C90.0273 15.5921 89.7513 16.2761 89.3673 16.7921C88.9833 17.3081 88.4493 17.5661 87.7653 17.5661C87.4533 17.5661 87.0993 17.5121 86.7033 17.4041L86.8113 15.9461C86.9673 15.9821 87.1113 16.0001 87.2433 16.0001C87.7233 16.0001 88.0833 15.7901 88.3233 15.3701C88.5633 14.9501 88.7193 14.4521 88.7913 13.8761C88.8633 13.3001 88.9293 12.4781 88.9893 11.4101L89.1513 7.88212H96.4773ZM103.905 17.5301C102.957 17.5301 102.105 17.3201 101.349 16.9001C100.593 16.4801 99.9985 15.9041 99.5665 15.1721C99.1465 14.4281 98.9365 13.5881 98.9365 12.6521C98.9365 11.7161 99.1465 10.8821 99.5665 10.1501C99.9985 9.40612 100.593 8.83012 101.349 8.42212C102.105 8.00212 102.957 7.79212 103.905 7.79212C104.853 7.79212 105.699 8.00212 106.443 8.42212C107.199 8.83012 107.787 9.40612 108.207 10.1501C108.639 10.8821 108.855 11.7161 108.855 12.6521C108.855 13.5881 108.639 14.4281 108.207 15.1721C107.787 15.9041 107.199 16.4801 106.443 16.9001C105.699 17.3201 104.853 17.5301 103.905 17.5301ZM103.905 16.0181C104.517 16.0181 105.063 15.8801 105.543 15.6041C106.035 15.3161 106.419 14.9201 106.695 14.4161C106.971 13.9001 107.109 13.3121 107.109 12.6521C107.109 11.9921 106.971 11.4101 106.695 10.9061C106.419 10.3901 106.035 9.99412 105.543 9.71812C105.063 9.44212 104.517 9.30412 103.905 9.30412C103.293 9.30412 102.741 9.44212 102.249 9.71812C101.769 9.99412 101.385 10.3901 101.097 10.9061C100.821 11.4101 100.683 11.9921 100.683 12.6521C100.683 13.3121 100.821 13.9001 101.097 14.4161C101.385 14.9201 101.769 15.3161 102.249 15.6041C102.741 15.8801 103.293 16.0181 103.905 16.0181ZM118.37 9.39412H113.078V17.4221H111.35V7.88212H118.37V9.39412Z" fill="#9F5830"/>
<rect x="0.000488281" y="3.84991" width="24.0385" height="1.37676" rx="0.688381" fill="#9F5830"/>
<rect x="0.000488281" y="10.7338" width="24.0385" height="1.37677" rx="0.688385" fill="#9F5830"/>
<rect x="0.000488281" y="17.6176" width="12.0192" height="1.37677" rx="0.688385" fill="#9F5830"/>
</svg>
