<svg width="184" height="23" viewBox="0 0 184 23" fill="none" xmlns="http://www.w3.org/2000/svg">
<path d="M9.594 10.7695C10.47 10.9495 11.136 11.3035 11.592 11.8315C12.048 12.3475 12.276 13.0255 12.276 13.8655C12.276 14.9575 11.886 15.7975 11.106 16.3855C10.338 16.9735 9.204 17.2675 7.704 17.2675H2.124V4.66746H7.362C8.706 4.66746 9.756 4.94346 10.512 5.49546C11.268 6.04746 11.646 6.84546 11.646 7.88946C11.646 8.59746 11.466 9.19746 11.106 9.68946C10.746 10.1695 10.242 10.5295 9.594 10.7695ZM3.438 10.3735H7.29C8.262 10.3735 9.006 10.1755 9.522 9.77946C10.05 9.38346 10.314 8.80746 10.314 8.05146C10.314 7.29546 10.05 6.71946 9.522 6.32346C9.006 5.92746 8.262 5.72946 7.29 5.72946H3.438V10.3735ZM7.704 16.2055C9.876 16.2055 10.962 15.3955 10.962 13.7755C10.962 12.1915 9.876 11.3995 7.704 11.3995H3.438V16.2055H7.704ZM23.5804 12.9295H15.6604C15.7324 13.9135 16.1104 14.7115 16.7944 15.3235C17.4784 15.9235 18.3424 16.2235 19.3864 16.2235C19.9744 16.2235 20.5144 16.1215 21.0064 15.9175C21.4984 15.7015 21.9244 15.3895 22.2844 14.9815L23.0044 15.8095C22.5844 16.3135 22.0564 16.6975 21.4204 16.9615C20.7964 17.2255 20.1064 17.3575 19.3504 17.3575C18.3784 17.3575 17.5144 17.1535 16.7584 16.7455C16.0144 16.3255 15.4324 15.7495 15.0124 15.0175C14.5924 14.2855 14.3824 13.4575 14.3824 12.5335C14.3824 11.6095 14.5804 10.7815 14.9764 10.0495C15.3844 9.31746 15.9364 8.74746 16.6324 8.33946C17.3404 7.93146 18.1324 7.72746 19.0084 7.72746C19.8844 7.72746 20.6704 7.93146 21.3664 8.33946C22.0624 8.74746 22.6084 9.31746 23.0044 10.0495C23.4004 10.7695 23.5984 11.5975 23.5984 12.5335L23.5804 12.9295ZM19.0084 8.82546C18.0964 8.82546 17.3284 9.11946 16.7044 9.70746C16.0924 10.2835 15.7444 11.0395 15.6604 11.9755H22.3744C22.2904 11.0395 21.9364 10.2835 21.3124 9.70746C20.7004 9.11946 19.9324 8.82546 19.0084 8.82546ZM30.3874 17.3575C29.4514 17.3575 28.6114 17.1535 27.8674 16.7455C27.1354 16.3375 26.5594 15.7675 26.1394 15.0355C25.7194 14.2915 25.5094 13.4575 25.5094 12.5335C25.5094 11.6095 25.7194 10.7815 26.1394 10.0495C26.5594 9.31746 27.1354 8.74746 27.8674 8.33946C28.6114 7.93146 29.4514 7.72746 30.3874 7.72746C31.2034 7.72746 31.9294 7.88946 32.5654 8.21346C33.2134 8.52546 33.7234 8.98746 34.0954 9.59946L33.1414 10.2475C32.8294 9.77946 32.4334 9.43146 31.9534 9.20346C31.4734 8.96346 30.9514 8.84346 30.3874 8.84346C29.7034 8.84346 29.0854 8.99946 28.5334 9.31146C27.9934 9.61146 27.5674 10.0435 27.2554 10.6075C26.9554 11.1715 26.8054 11.8135 26.8054 12.5335C26.8054 13.2655 26.9554 13.9135 27.2554 14.4775C27.5674 15.0295 27.9934 15.4615 28.5334 15.7735C29.0854 16.0735 29.7034 16.2235 30.3874 16.2235C30.9514 16.2235 31.4734 16.1095 31.9534 15.8815C32.4334 15.6535 32.8294 15.3055 33.1414 14.8375L34.0954 15.4855C33.7234 16.0975 33.2134 16.5655 32.5654 16.8895C31.9174 17.2015 31.1914 17.3575 30.3874 17.3575ZM40.638 11.1475C41.826 11.1595 42.726 11.4235 43.338 11.9395C43.962 12.4555 44.274 13.1995 44.274 14.1715C44.274 15.1795 43.938 15.9535 43.266 16.4935C42.606 17.0335 41.646 17.2975 40.386 17.2855L36.57 17.2675V7.79946H37.848V11.1115L40.638 11.1475ZM40.314 16.3135C41.19 16.3255 41.85 16.1515 42.294 15.7915C42.75 15.4195 42.978 14.8795 42.978 14.1715C42.978 13.4755 42.756 12.9595 42.312 12.6235C41.868 12.2875 41.202 12.1135 40.314 12.1015L37.848 12.0655V16.2775L40.314 16.3135ZM55.9055 11.4895H53.0255V17.2675H51.7295V4.66746H53.0255V10.3195H55.9055L60.1715 4.66746H61.6115L56.9315 10.7875L61.8815 17.2675H60.3515L55.9055 11.4895ZM67.0389 7.72746C68.2749 7.72746 69.2229 8.03946 69.8829 8.66346C70.5429 9.27546 70.8729 10.1875 70.8729 11.3995V17.2675H69.6489V15.7915C69.3609 16.2835 68.9349 16.6675 68.3709 16.9435C67.8189 17.2195 67.1589 17.3575 66.3909 17.3575C65.3349 17.3575 64.4949 17.1055 63.8709 16.6015C63.2469 16.0975 62.9349 15.4315 62.9349 14.6035C62.9349 13.7995 63.2229 13.1515 63.7989 12.6595C64.3869 12.1675 65.3169 11.9215 66.5889 11.9215H69.5949V11.3455C69.5949 10.5295 69.3669 9.91146 68.9109 9.49146C68.4549 9.05946 67.7889 8.84346 66.9129 8.84346C66.3129 8.84346 65.7369 8.94546 65.1849 9.14946C64.6329 9.34146 64.1589 9.61146 63.7629 9.95946L63.1869 9.00546C63.6669 8.59746 64.2429 8.28546 64.9149 8.06946C65.5869 7.84146 66.2949 7.72746 67.0389 7.72746ZM66.5889 16.3495C67.3089 16.3495 67.9269 16.1875 68.4429 15.8635C68.9589 15.5275 69.3429 15.0475 69.5949 14.4235V12.8755H66.6249C65.0049 12.8755 64.1949 13.4395 64.1949 14.5675C64.1949 15.1195 64.4049 15.5575 64.8249 15.8815C65.2449 16.1935 65.8329 16.3495 66.5889 16.3495ZM80.935 8.93346H77.353V17.2675H76.075V8.93346H72.493V7.79946H80.935V8.93346ZM86.0408 7.72746C87.2768 7.72746 88.2248 8.03946 88.8848 8.66346C89.5448 9.27546 89.8748 10.1875 89.8748 11.3995V17.2675H88.6508V15.7915C88.3628 16.2835 87.9368 16.6675 87.3728 16.9435C86.8208 17.2195 86.1608 17.3575 85.3928 17.3575C84.3368 17.3575 83.4968 17.1055 82.8728 16.6015C82.2488 16.0975 81.9368 15.4315 81.9368 14.6035C81.9368 13.7995 82.2248 13.1515 82.8008 12.6595C83.3888 12.1675 84.3188 11.9215 85.5908 11.9215H88.5968V11.3455C88.5968 10.5295 88.3688 9.91146 87.9128 9.49146C87.4568 9.05946 86.7908 8.84346 85.9148 8.84346C85.3148 8.84346 84.7388 8.94546 84.1868 9.14946C83.6348 9.34146 83.1608 9.61146 82.7648 9.95946L82.1888 9.00546C82.6688 8.59746 83.2448 8.28546 83.9168 8.06946C84.5888 7.84146 85.2968 7.72746 86.0408 7.72746ZM85.5908 16.3495C86.3108 16.3495 86.9288 16.1875 87.4448 15.8635C87.9608 15.5275 88.3448 15.0475 88.5968 14.4235V12.8755H85.6268C84.0068 12.8755 83.1968 13.4395 83.1968 14.5675C83.1968 15.1195 83.4068 15.5575 83.8268 15.8815C84.2468 16.1935 84.8348 16.3495 85.5908 16.3495ZM101.017 7.79946V17.2675H99.739V8.93346H95.203L95.077 11.2735C94.981 13.2415 94.753 14.7535 94.393 15.8095C94.033 16.8655 93.391 17.3935 92.467 17.3935C92.215 17.3935 91.909 17.3455 91.549 17.2495L91.639 16.1515C91.855 16.1995 92.005 16.2235 92.089 16.2235C92.581 16.2235 92.953 15.9955 93.205 15.5395C93.457 15.0835 93.625 14.5195 93.709 13.8475C93.793 13.1755 93.865 12.2875 93.925 11.1835L94.087 7.79946H101.017ZM108.556 17.3575C107.644 17.3575 106.822 17.1535 106.09 16.7455C105.358 16.3255 104.782 15.7495 104.362 15.0175C103.942 14.2855 103.732 13.4575 103.732 12.5335C103.732 11.6095 103.942 10.7815 104.362 10.0495C104.782 9.31746 105.358 8.74746 106.09 8.33946C106.822 7.93146 107.644 7.72746 108.556 7.72746C109.468 7.72746 110.29 7.93146 111.022 8.33946C111.754 8.74746 112.324 9.31746 112.732 10.0495C113.152 10.7815 113.362 11.6095 113.362 12.5335C113.362 13.4575 113.152 14.2855 112.732 15.0175C112.324 15.7495 111.754 16.3255 111.022 16.7455C110.29 17.1535 109.468 17.3575 108.556 17.3575ZM108.556 16.2235C109.228 16.2235 109.828 16.0735 110.356 15.7735C110.896 15.4615 111.316 15.0235 111.616 14.4595C111.916 13.8955 112.066 13.2535 112.066 12.5335C112.066 11.8135 111.916 11.1715 111.616 10.6075C111.316 10.0435 110.896 9.61146 110.356 9.31146C109.828 8.99946 109.228 8.84346 108.556 8.84346C107.884 8.84346 107.278 8.99946 106.738 9.31146C106.21 9.61146 105.79 10.0435 105.478 10.6075C105.178 11.1715 105.028 11.8135 105.028 12.5335C105.028 13.2535 105.178 13.8955 105.478 14.4595C105.79 15.0235 106.21 15.4615 106.738 15.7735C107.278 16.0735 107.884 16.2235 108.556 16.2235ZM122.789 8.93346H117.371V17.2675H116.093V7.79946H122.789V8.93346Z" fill="#909090"/>
<path d="M183.354 11.621C183.549 11.4257 183.549 11.1092 183.354 10.9139L180.172 7.73192C179.976 7.53666 179.66 7.53666 179.464 7.73192C179.269 7.92718 179.269 8.24377 179.464 8.43903L182.293 11.2675L179.464 14.0959C179.269 14.2911 179.269 14.6077 179.464 14.803C179.66 14.9983 179.976 14.9983 180.172 14.803L183.354 11.621ZM143 11.7675H183V10.7675H143V11.7675Z" fill="#909090"/>
</svg>
