<svg width="116" height="23" viewBox="0 0 116 23" fill="none" xmlns="http://www.w3.org/2000/svg">
<path d="M47.333 11.7235H44.705V17.2675H42.941V4.66746H44.705V10.1395H47.369L51.329 4.66746H53.255L48.755 10.7695L53.471 17.2675H51.419L47.333 11.7235ZM58.5531 7.63746C59.8731 7.63746 60.8811 7.96146 61.5771 8.60946C62.2851 9.25746 62.6391 10.2235 62.6391 11.5075V17.2675H61.0011V16.0075C60.7131 16.4515 60.2991 16.7935 59.7591 17.0335C59.2311 17.2615 58.6011 17.3755 57.8691 17.3755C56.8011 17.3755 55.9431 17.1175 55.2951 16.6015C54.6591 16.0855 54.3411 15.4075 54.3411 14.5675C54.3411 13.7275 54.6471 13.0555 55.2591 12.5515C55.8711 12.0355 56.8431 11.7775 58.1751 11.7775H60.9111V11.4355C60.9111 10.6915 60.6951 10.1215 60.2631 9.72546C59.8311 9.32946 59.1951 9.13146 58.3551 9.13146C57.7911 9.13146 57.2391 9.22746 56.6991 9.41946C56.1591 9.59946 55.7031 9.84546 55.3311 10.1575L54.6111 8.86146C55.1031 8.46546 55.6911 8.16546 56.3751 7.96146C57.0591 7.74546 57.7851 7.63746 58.5531 7.63746ZM58.1571 16.0435C58.8171 16.0435 59.3871 15.8995 59.8671 15.6115C60.3471 15.3115 60.6951 14.8915 60.9111 14.3515V13.0195H58.2471C56.7831 13.0195 56.0511 13.5115 56.0511 14.4955C56.0511 14.9755 56.2371 15.3535 56.6091 15.6295C56.9811 15.9055 57.4971 16.0435 58.1571 16.0435ZM72.8607 9.23946H69.3687V17.2675H67.6407V9.23946H64.1487V7.72746H72.8607V9.23946ZM78.0296 7.63746C79.3496 7.63746 80.3576 7.96146 81.0536 8.60946C81.7616 9.25746 82.1156 10.2235 82.1156 11.5075V17.2675H80.4776V16.0075C80.1896 16.4515 79.7756 16.7935 79.2356 17.0335C78.7076 17.2615 78.0776 17.3755 77.3456 17.3755C76.2776 17.3755 75.4196 17.1175 74.7716 16.6015C74.1356 16.0855 73.8176 15.4075 73.8176 14.5675C73.8176 13.7275 74.1236 13.0555 74.7356 12.5515C75.3476 12.0355 76.3196 11.7775 77.6516 11.7775H80.3876V11.4355C80.3876 10.6915 80.1716 10.1215 79.7396 9.72546C79.3076 9.32946 78.6716 9.13146 77.8316 9.13146C77.2676 9.13146 76.7156 9.22746 76.1756 9.41946C75.6356 9.59946 75.1796 9.84546 74.8076 10.1575L74.0876 8.86146C74.5796 8.46546 75.1676 8.16546 75.8516 7.96146C76.5356 7.74546 77.2616 7.63746 78.0296 7.63746ZM77.6336 16.0435C78.2936 16.0435 78.8636 15.8995 79.3436 15.6115C79.8236 15.3115 80.1716 14.8915 80.3876 14.3515V13.0195H77.7236C76.2596 13.0195 75.5276 13.5115 75.5276 14.4955C75.5276 14.9755 75.7136 15.3535 76.0856 15.6295C76.4576 15.9055 76.9736 16.0435 77.6336 16.0435ZM93.4172 7.72746V17.2675H91.6892V9.23946H87.5852L87.4772 11.3635C87.4172 12.6475 87.3032 13.7215 87.1352 14.5855C86.9672 15.4375 86.6912 16.1215 86.3072 16.6375C85.9232 17.1535 85.3892 17.4115 84.7052 17.4115C84.3932 17.4115 84.0392 17.3575 83.6432 17.2495L83.7512 15.7915C83.9072 15.8275 84.0512 15.8455 84.1832 15.8455C84.6632 15.8455 85.0232 15.6355 85.2632 15.2155C85.5032 14.7955 85.6592 14.2975 85.7312 13.7215C85.8032 13.1455 85.8692 12.3235 85.9292 11.2555L86.0912 7.72746H93.4172ZM100.844 17.3755C99.8965 17.3755 99.0445 17.1655 98.2885 16.7455C97.5325 16.3255 96.9385 15.7495 96.5065 15.0175C96.0865 14.2735 95.8765 13.4335 95.8765 12.4975C95.8765 11.5615 96.0865 10.7275 96.5065 9.99546C96.9385 9.25146 97.5325 8.67546 98.2885 8.26746C99.0445 7.84746 99.8965 7.63746 100.844 7.63746C101.792 7.63746 102.638 7.84746 103.382 8.26746C104.138 8.67546 104.726 9.25146 105.146 9.99546C105.578 10.7275 105.794 11.5615 105.794 12.4975C105.794 13.4335 105.578 14.2735 105.146 15.0175C104.726 15.7495 104.138 16.3255 103.382 16.7455C102.638 17.1655 101.792 17.3755 100.844 17.3755ZM100.844 15.8635C101.456 15.8635 102.002 15.7255 102.482 15.4495C102.974 15.1615 103.358 14.7655 103.634 14.2615C103.91 13.7455 104.048 13.1575 104.048 12.4975C104.048 11.8375 103.91 11.2555 103.634 10.7515C103.358 10.2355 102.974 9.83946 102.482 9.56346C102.002 9.28746 101.456 9.14946 100.844 9.14946C100.232 9.14946 99.6805 9.28746 99.1885 9.56346C98.7085 9.83946 98.3245 10.2355 98.0365 10.7515C97.7605 11.2555 97.6225 11.8375 97.6225 12.4975C97.6225 13.1575 97.7605 13.7455 98.0365 14.2615C98.3245 14.7655 98.7085 15.1615 99.1885 15.4495C99.6805 15.7255 100.232 15.8635 100.844 15.8635ZM115.31 9.23946H110.018V17.2675H108.29V7.72746H115.31V9.23946Z" fill="white"/>
<rect x="0.691895" y="3.39684" width="25" height="1.43102" rx="0.715511" fill="white"/>
<rect x="0.691895" y="10.5519" width="25" height="1.43102" rx="0.715511" fill="white"/>
<rect x="0.691895" y="17.7071" width="12.5" height="1.43102" rx="0.715511" fill="white"/>
</svg>
