<svg width="174" height="64" viewBox="0 0 174 64" fill="none" xmlns="http://www.w3.org/2000/svg">
<path d="M24.2039 10.0675V35.2675H21.5759V12.3715H9.40789L9.11989 20.7955C8.9999 24.2755 8.71189 27.0835 8.25589 29.2195C7.82389 31.3315 7.1519 32.9155 6.23989 33.9715C5.32789 35.0035 4.11589 35.5195 2.60389 35.5195C1.95589 35.5195 1.28389 35.4355 0.587895 35.2675L0.803895 32.8915C1.21189 32.9875 1.60789 33.0355 1.99189 33.0355C3.04789 33.0355 3.89989 32.6155 4.54789 31.7755C5.21989 30.9355 5.72389 29.6395 6.05989 27.8875C6.39589 26.1115 6.62389 23.7715 6.74389 20.8675L7.10389 10.0675H24.2039ZM32.0935 16.3315H34.6495V31.3795L47.2855 16.3315H49.5535V35.2675H46.9975V20.2195L34.3975 35.2675H32.0935V16.3315ZM70.1987 18.5995H63.0347V35.2675H60.4787V18.5995H53.3147V16.3315H70.1987V18.5995ZM80.8274 35.4475C79.0034 35.4475 77.3594 35.0395 75.8954 34.2235C74.4314 33.3835 73.2794 32.2315 72.4394 30.7675C71.5994 29.3035 71.1794 27.6475 71.1794 25.7995C71.1794 23.9515 71.5994 22.2955 72.4394 20.8315C73.2794 19.3675 74.4314 18.2275 75.8954 17.4115C77.3594 16.5955 79.0034 16.1875 80.8274 16.1875C82.6514 16.1875 84.2954 16.5955 85.7594 17.4115C87.2234 18.2275 88.3634 19.3675 89.1794 20.8315C90.0194 22.2955 90.4394 23.9515 90.4394 25.7995C90.4394 27.6475 90.0194 29.3035 89.1794 30.7675C88.3634 32.2315 87.2234 33.3835 85.7594 34.2235C84.2954 35.0395 82.6514 35.4475 80.8274 35.4475ZM80.8274 33.1795C82.1714 33.1795 83.3714 32.8795 84.4274 32.2795C85.5074 31.6555 86.3474 30.7795 86.9474 29.6515C87.5474 28.5235 87.8474 27.2395 87.8474 25.7995C87.8474 24.3595 87.5474 23.0755 86.9474 21.9475C86.3474 20.8195 85.5074 19.9555 84.4274 19.3555C83.3714 18.7315 82.1714 18.4195 80.8274 18.4195C79.4834 18.4195 78.2714 18.7315 77.1914 19.3555C76.1354 19.9555 75.2954 20.8195 74.6714 21.9475C74.0714 23.0755 73.7714 24.3595 73.7714 25.7995C73.7714 27.2395 74.0714 28.5235 74.6714 29.6515C75.2954 30.7795 76.1354 31.6555 77.1914 32.2795C78.2714 32.8795 79.4834 33.1795 80.8274 33.1795ZM103.822 35.4475C101.95 35.4475 100.27 35.0395 98.7821 34.2235C97.3181 33.4075 96.1661 32.2675 95.3261 30.8035C94.4861 29.3155 94.0661 27.6475 94.0661 25.7995C94.0661 23.9515 94.4861 22.2955 95.3261 20.8315C96.1661 19.3675 97.3181 18.2275 98.7821 17.4115C100.27 16.5955 101.95 16.1875 103.822 16.1875C105.454 16.1875 106.906 16.5115 108.178 17.1595C109.474 17.7835 110.494 18.7075 111.238 19.9315L109.33 21.2275C108.706 20.2915 107.914 19.5955 106.954 19.1395C105.994 18.6595 104.95 18.4195 103.822 18.4195C102.454 18.4195 101.218 18.7315 100.114 19.3555C99.0341 19.9555 98.1821 20.8195 97.5581 21.9475C96.9581 23.0755 96.6581 24.3595 96.6581 25.7995C96.6581 27.2635 96.9581 28.5595 97.5581 29.6875C98.1821 30.7915 99.0341 31.6555 100.114 32.2795C101.218 32.8795 102.454 33.1795 103.822 33.1795C104.95 33.1795 105.994 32.9515 106.954 32.4955C107.914 32.0395 108.706 31.3435 109.33 30.4075L111.238 31.7035C110.494 32.9275 109.474 33.8635 108.178 34.5115C106.882 35.1355 105.43 35.4475 103.822 35.4475ZM133.572 16.1875C135.348 16.1875 136.956 16.5955 138.396 17.4115C139.836 18.2035 140.964 19.3315 141.78 20.7955C142.596 22.2595 143.004 23.9275 143.004 25.7995C143.004 27.6955 142.596 29.3755 141.78 30.8395C140.964 32.3035 139.836 33.4435 138.396 34.2595C136.98 35.0515 135.372 35.4475 133.572 35.4475C132.036 35.4475 130.644 35.1355 129.396 34.5115C128.172 33.8635 127.164 32.9275 126.372 31.7035V42.2515H123.816V16.3315H126.264V20.0755C127.032 18.8275 128.04 17.8675 129.288 17.1955C130.56 16.5235 131.988 16.1875 133.572 16.1875ZM133.392 33.1795C134.712 33.1795 135.912 32.8795 136.992 32.2795C138.072 31.6555 138.912 30.7795 139.512 29.6515C140.136 28.5235 140.448 27.2395 140.448 25.7995C140.448 24.3595 140.136 23.0875 139.512 21.9835C138.912 20.8555 138.072 19.9795 136.992 19.3555C135.912 18.7315 134.712 18.4195 133.392 18.4195C132.048 18.4195 130.836 18.7315 129.756 19.3555C128.7 19.9795 127.86 20.8555 127.236 21.9835C126.636 23.0875 126.336 24.3595 126.336 25.7995C126.336 27.2395 126.636 28.5235 127.236 29.6515C127.86 30.7795 128.7 31.6555 129.756 32.2795C130.836 32.8795 132.048 33.1795 133.392 33.1795ZM171.356 25.7635C171.356 28.7155 170.384 31.0315 168.44 32.7115C166.496 34.3915 163.748 35.3035 160.196 35.4475V42.2515H157.712V35.4835C154.184 35.3395 151.448 34.4275 149.504 32.7475C147.584 31.0435 146.624 28.7155 146.624 25.7635C146.624 22.8355 147.584 20.5435 149.504 18.8875C151.448 17.2315 154.184 16.3315 157.712 16.1875V8.55545H160.196V16.1875C163.748 16.3555 166.496 17.2675 168.44 18.9235C170.384 20.5795 171.356 22.8595 171.356 25.7635ZM149.144 25.7635C149.144 28.0195 149.864 29.7835 151.304 31.0555C152.768 32.3275 154.904 33.0475 157.712 33.2155V18.4555C154.928 18.5995 152.804 19.3075 151.34 20.5795C149.876 21.8275 149.144 23.5555 149.144 25.7635ZM160.196 33.2155C163.004 33.0715 165.14 32.3635 166.604 31.0915C168.092 29.8195 168.836 28.0435 168.836 25.7635C168.836 23.5315 168.092 21.7915 166.604 20.5435C165.14 19.2955 163.004 18.5995 160.196 18.4555V33.2155Z" fill="#202020"/>
<path d="M116.367 35.4475C115.839 35.4475 115.383 35.2555 114.999 34.8715C114.639 34.4875 114.459 34.0195 114.459 33.4675C114.459 32.9155 114.639 32.4595 114.999 32.0995C115.383 31.7155 115.839 31.5235 116.367 31.5235C116.895 31.5235 117.351 31.7155 117.735 32.0995C118.119 32.4595 118.311 32.9155 118.311 33.4675C118.311 34.0195 118.119 34.4875 117.735 34.8715C117.351 35.2555 116.895 35.4475 116.367 35.4475Z" fill="#9F5830"/>
<path d="M14.8459 59.3715V62.4655H13.8799V60.2675H5.32589L5.31189 62.4655H4.34589L4.35989 59.3715H4.84989C5.49389 59.3341 5.94189 58.8255 6.19389 57.8455C6.44589 56.8561 6.59989 55.4561 6.65589 53.6455L6.76789 50.4675H13.3759V59.3715H14.8459ZM7.57989 53.7435C7.53323 55.2368 7.41656 56.4688 7.22989 57.4395C7.05256 58.4008 6.74923 59.0448 6.31989 59.3715H12.3539V51.3635H7.66389L7.57989 53.7435ZM22.9561 56.8935H16.7961C16.8521 57.6588 17.1461 58.2795 17.6781 58.7555C18.2101 59.2221 18.8821 59.4555 19.6941 59.4555C20.1514 59.4555 20.5714 59.3761 20.9541 59.2175C21.3367 59.0495 21.6681 58.8068 21.9481 58.4895L22.5081 59.1335C22.1814 59.5255 21.7707 59.8241 21.2761 60.0295C20.7907 60.2348 20.2541 60.3375 19.6661 60.3375C18.9101 60.3375 18.2381 60.1788 17.6501 59.8615C17.0714 59.5348 16.6187 59.0868 16.2921 58.5175C15.9654 57.9481 15.8021 57.3041 15.8021 56.5855C15.8021 55.8668 15.9561 55.2228 16.2641 54.6535C16.5814 54.0841 17.0107 53.6408 17.5521 53.3235C18.1027 53.0061 18.7187 52.8475 19.4001 52.8475C20.0814 52.8475 20.6927 53.0061 21.2341 53.3235C21.7754 53.6408 22.2001 54.0841 22.5081 54.6535C22.8161 55.2135 22.9701 55.8575 22.9701 56.5855L22.9561 56.8935ZM19.4001 53.7015C18.6907 53.7015 18.0934 53.9301 17.6081 54.3875C17.1321 54.8355 16.8614 55.4235 16.7961 56.1515H22.0181C21.9527 55.4235 21.6774 54.8355 21.1921 54.3875C20.7161 53.9301 20.1187 53.7015 19.4001 53.7015ZM27.8443 56.9915H26.1643V60.2675H25.1703V52.9035H26.1643V56.1375H27.8583L30.4483 52.9035H31.5263L28.6283 56.4735L31.7363 60.2675H30.5603L27.8443 56.9915ZM36.0833 60.3375C35.374 60.3375 34.7347 60.1788 34.1653 59.8615C33.596 59.5348 33.148 59.0868 32.8213 58.5175C32.4947 57.9481 32.3313 57.3041 32.3313 56.5855C32.3313 55.8668 32.4947 55.2228 32.8213 54.6535C33.148 54.0841 33.596 53.6408 34.1653 53.3235C34.7347 53.0061 35.374 52.8475 36.0833 52.8475C36.7927 52.8475 37.432 53.0061 38.0013 53.3235C38.5707 53.6408 39.014 54.0841 39.3313 54.6535C39.658 55.2228 39.8213 55.8668 39.8213 56.5855C39.8213 57.3041 39.658 57.9481 39.3313 58.5175C39.014 59.0868 38.5707 59.5348 38.0013 59.8615C37.432 60.1788 36.7927 60.3375 36.0833 60.3375ZM36.0833 59.4555C36.606 59.4555 37.0727 59.3388 37.4833 59.1055C37.9033 58.8628 38.23 58.5221 38.4633 58.0835C38.6967 57.6448 38.8133 57.1455 38.8133 56.5855C38.8133 56.0255 38.6967 55.5261 38.4633 55.0875C38.23 54.6488 37.9033 54.3128 37.4833 54.0795C37.0727 53.8368 36.606 53.7155 36.0833 53.7155C35.5607 53.7155 35.0893 53.8368 34.6693 54.0795C34.2587 54.3128 33.932 54.6488 33.6893 55.0875C33.456 55.5261 33.3393 56.0255 33.3393 56.5855C33.3393 57.1455 33.456 57.6448 33.6893 58.0835C33.932 58.5221 34.2587 58.8628 34.6693 59.1055C35.0893 59.3388 35.5607 59.4555 36.0833 59.4555ZM45.7397 52.8475C46.4304 52.8475 47.0557 53.0061 47.6157 53.3235C48.1757 53.6315 48.6144 54.0701 48.9317 54.6395C49.2491 55.2088 49.4077 55.8575 49.4077 56.5855C49.4077 57.3228 49.2491 57.9761 48.9317 58.5455C48.6144 59.1148 48.1757 59.5581 47.6157 59.8755C47.0651 60.1835 46.4397 60.3375 45.7397 60.3375C45.1424 60.3375 44.6011 60.2161 44.1157 59.9735C43.6397 59.7215 43.2477 59.3575 42.9397 58.8815V62.9835H41.9457V52.9035H42.8977V54.3595C43.1964 53.8741 43.5884 53.5008 44.0737 53.2395C44.5684 52.9781 45.1237 52.8475 45.7397 52.8475ZM45.6697 59.4555C46.1831 59.4555 46.6497 59.3388 47.0697 59.1055C47.4897 58.8628 47.8164 58.5221 48.0497 58.0835C48.2924 57.6448 48.4137 57.1455 48.4137 56.5855C48.4137 56.0255 48.2924 55.5308 48.0497 55.1015C47.8164 54.6628 47.4897 54.3221 47.0697 54.0795C46.6497 53.8368 46.1831 53.7155 45.6697 53.7155C45.1471 53.7155 44.6757 53.8368 44.2557 54.0795C43.8451 54.3221 43.5184 54.6628 43.2757 55.1015C43.0424 55.5308 42.9257 56.0255 42.9257 56.5855C42.9257 57.1455 43.0424 57.6448 43.2757 58.0835C43.5184 58.5221 43.8451 58.8628 44.2557 59.1055C44.6757 59.3388 45.1471 59.4555 45.6697 59.4555ZM54.0364 52.8475C54.9977 52.8475 55.735 53.0901 56.2484 53.5755C56.7617 54.0515 57.0184 54.7608 57.0184 55.7035V60.2675H56.0664V59.1195C55.8424 59.5021 55.511 59.8008 55.0724 60.0155C54.643 60.2301 54.1297 60.3375 53.5324 60.3375C52.711 60.3375 52.0577 60.1415 51.5724 59.7495C51.087 59.3575 50.8444 58.8395 50.8444 58.1955C50.8444 57.5701 51.0684 57.0661 51.5164 56.6835C51.9737 56.3008 52.697 56.1095 53.6864 56.1095H56.0244V55.6615C56.0244 55.0268 55.847 54.5461 55.4924 54.2195C55.1377 53.8835 54.6197 53.7155 53.9384 53.7155C53.4717 53.7155 53.0237 53.7948 52.5944 53.9535C52.165 54.1028 51.7964 54.3128 51.4884 54.5835L51.0404 53.8415C51.4137 53.5241 51.8617 53.2815 52.3844 53.1135C52.907 52.9361 53.4577 52.8475 54.0364 52.8475ZM53.6864 59.5535C54.2464 59.5535 54.727 59.4275 55.1284 59.1755C55.5297 58.9141 55.8284 58.5408 56.0244 58.0555V56.8515H53.7144C52.4544 56.8515 51.8244 57.2901 51.8244 58.1675C51.8244 58.5968 51.9877 58.9375 52.3144 59.1895C52.641 59.4321 53.0984 59.5535 53.6864 59.5535ZM64.8445 53.7855H62.0585V60.2675H61.0645V53.7855H58.2785V52.9035H64.8445V53.7855ZM66.2817 52.9035H67.2757V58.7555L72.1897 52.9035H73.0717V60.2675H72.0777V54.4155L67.1777 60.2675H66.2817V52.9035ZM80.6103 56.4595C81.609 56.6928 82.1083 57.2948 82.1083 58.2655C82.1083 58.9095 81.8703 59.4041 81.3943 59.7495C80.9183 60.0948 80.209 60.2675 79.2663 60.2675H75.9203V52.9035H79.1683C80.0083 52.9035 80.6663 53.0668 81.1423 53.3935C81.6183 53.7201 81.8563 54.1868 81.8563 54.7935C81.8563 55.1948 81.7443 55.5401 81.5203 55.8295C81.3057 56.1095 81.0023 56.3195 80.6103 56.4595ZM76.8863 56.1795H79.0983C79.6677 56.1795 80.1017 56.0721 80.4003 55.8575C80.7083 55.6428 80.8623 55.3301 80.8623 54.9195C80.8623 54.5088 80.7083 54.2008 80.4003 53.9955C80.1017 53.7901 79.6677 53.6875 79.0983 53.6875H76.8863V56.1795ZM79.2243 59.4835C79.859 59.4835 80.335 59.3808 80.6523 59.1755C80.9697 58.9701 81.1283 58.6481 81.1283 58.2095C81.1283 57.7708 80.9837 57.4488 80.6943 57.2435C80.405 57.0288 79.9477 56.9215 79.3223 56.9215H76.8863V59.4835H79.2243ZM84.4379 52.9035H85.4319V56.1655H90.0659V52.9035H91.0599V60.2675H90.0659V57.0195H85.4319V60.2675H84.4379V52.9035ZM96.9792 55.5075C97.9032 55.5168 98.6079 55.7221 99.0932 56.1235C99.5785 56.5248 99.8212 57.1035 99.8212 57.8595C99.8212 58.6435 99.5599 59.2455 99.0372 59.6655C98.5145 60.0855 97.7679 60.2908 96.7972 60.2815L93.8852 60.2675V52.9035H94.8792V55.4795L96.9792 55.5075ZM101.053 52.9035H102.047V60.2675H101.053V52.9035ZM96.7412 59.5255C97.4225 59.5348 97.9359 59.3995 98.2812 59.1195C98.6359 58.8301 98.8132 58.4101 98.8132 57.8595C98.8132 57.3181 98.6405 56.9168 98.2952 56.6555C97.9499 56.3941 97.4319 56.2588 96.7412 56.2495L94.8792 56.2215V59.4975L96.7412 59.5255ZM104.877 52.9035H105.871V58.7555L110.785 52.9035H111.667V60.2675H110.673V54.4155L105.773 60.2675H104.877V52.9035ZM108.223 51.8395C107.589 51.8395 107.085 51.6808 106.711 51.3635C106.338 51.0461 106.147 50.5981 106.137 50.0195H106.851C106.861 50.3835 106.991 50.6775 107.243 50.9015C107.495 51.1161 107.822 51.2235 108.223 51.2235C108.625 51.2235 108.951 51.1161 109.203 50.9015C109.465 50.6775 109.6 50.3835 109.609 50.0195H110.323C110.314 50.5981 110.118 51.0461 109.735 51.3635C109.362 51.6808 108.858 51.8395 108.223 51.8395ZM120.854 56.9915H119.174V60.2675H118.18V52.9035H119.174V56.1375H120.868L123.458 52.9035H124.536L121.638 56.4735L124.746 60.2675H123.57L120.854 56.9915ZM128.712 52.8475C129.673 52.8475 130.411 53.0901 130.924 53.5755C131.437 54.0515 131.694 54.7608 131.694 55.7035V60.2675H130.742V59.1195C130.518 59.5021 130.187 59.8008 129.748 60.0155C129.319 60.2301 128.805 60.3375 128.208 60.3375C127.387 60.3375 126.733 60.1415 126.248 59.7495C125.763 59.3575 125.52 58.8395 125.52 58.1955C125.52 57.5701 125.744 57.0661 126.192 56.6835C126.649 56.3008 127.373 56.1095 128.362 56.1095H130.7V55.6615C130.7 55.0268 130.523 54.5461 130.168 54.2195C129.813 53.8835 129.295 53.7155 128.614 53.7155C128.147 53.7155 127.699 53.7948 127.27 53.9535C126.841 54.1028 126.472 54.3128 126.164 54.5835L125.716 53.8415C126.089 53.5241 126.537 53.2815 127.06 53.1135C127.583 52.9361 128.133 52.8475 128.712 52.8475ZM128.362 59.5535C128.922 59.5535 129.403 59.4275 129.804 59.1755C130.205 58.9141 130.504 58.5408 130.7 58.0555V56.8515H128.39C127.13 56.8515 126.5 57.2901 126.5 58.1675C126.5 58.5968 126.663 58.9375 126.99 59.1895C127.317 59.4321 127.774 59.5535 128.362 59.5535ZM142.572 52.9035V60.2675H141.662V54.4435L138.68 59.3715H138.232L135.25 54.4295V60.2675H134.34V52.9035H135.348L138.47 58.2095L141.648 52.9035H142.572ZM151.841 56.8935H145.681C145.737 57.6588 146.031 58.2795 146.563 58.7555C147.095 59.2221 147.767 59.4555 148.579 59.4555C149.036 59.4555 149.456 59.3761 149.839 59.2175C150.221 59.0495 150.553 58.8068 150.833 58.4895L151.393 59.1335C151.066 59.5255 150.655 59.8241 150.161 60.0295C149.675 60.2348 149.139 60.3375 148.551 60.3375C147.795 60.3375 147.123 60.1788 146.535 59.8615C145.956 59.5348 145.503 59.0868 145.177 58.5175C144.85 57.9481 144.687 57.3041 144.687 56.5855C144.687 55.8668 144.841 55.2228 145.149 54.6535C145.466 54.0841 145.895 53.6408 146.437 53.3235C146.987 53.0061 147.603 52.8475 148.285 52.8475C148.966 52.8475 149.577 53.0061 150.119 53.3235C150.66 53.6408 151.085 54.0841 151.393 54.6535C151.701 55.2135 151.855 55.8575 151.855 56.5855L151.841 56.8935ZM148.285 53.7015C147.575 53.7015 146.978 53.9301 146.493 54.3875C146.017 54.8355 145.746 55.4235 145.681 56.1515H150.903C150.837 55.4235 150.562 54.8355 150.077 54.3875C149.601 53.9301 149.003 53.7015 148.285 53.7015ZM154.055 52.9035H155.049V56.1655H159.683V52.9035H160.677V60.2675H159.683V57.0195H155.049V60.2675H154.055V52.9035ZM166.666 55.5075C167.59 55.5168 168.29 55.7221 168.766 56.1235C169.252 56.5248 169.494 57.1035 169.494 57.8595C169.494 58.6435 169.233 59.2455 168.71 59.6655C168.197 60.0855 167.45 60.2908 166.47 60.2815L163.502 60.2675V52.9035H164.496V55.4795L166.666 55.5075ZM166.414 59.5255C167.096 59.5348 167.609 59.3995 167.954 59.1195C168.309 58.8301 168.486 58.4101 168.486 57.8595C168.486 57.3181 168.314 56.9168 167.968 56.6555C167.623 56.3941 167.105 56.2588 166.414 56.2495L164.496 56.2215V59.4975L166.414 59.5255Z" fill="#202020"/>
</svg>
