<svg width="131" height="27" viewBox="0 0 131 27" fill="none" xmlns="http://www.w3.org/2000/svg">
<path d="M18.4781 2.02584V21.2098H16.4775V3.7798H7.21437L6.99513 10.1927C6.90378 12.8419 6.68453 14.9796 6.33739 16.6056C6.00853 18.2134 5.49696 19.4193 4.80268 20.2232C4.10841 21.0088 3.18575 21.4016 2.03471 21.4016C1.54141 21.4016 1.02984 21.3377 0.5 21.2098L0.664434 19.401C0.975031 19.4741 1.27649 19.5106 1.56882 19.5106C2.37272 19.5106 3.02132 19.1909 3.51462 18.5514C4.02619 17.912 4.40987 16.9254 4.66565 15.5916C4.92144 14.2396 5.09501 12.4582 5.18636 10.2475L5.46041 2.02584H18.4781Z" fill="#202020"/>
<path d="M24.4842 6.79441H26.43V18.25L36.0494 6.79441H37.7759V21.2098H35.8301V9.75422L26.2381 21.2098H24.4842V6.79441Z" fill="#202020"/>
<path d="M53.4924 8.52097H48.0387V21.2098H46.0929V8.52097H40.6392V6.79441H53.4924V8.52097Z" fill="#202020"/>
<path d="M61.5837 21.3468C60.1951 21.3468 58.9436 21.0362 57.8291 20.415C56.7146 19.7755 55.8376 18.8986 55.1982 17.7841C54.5587 16.6696 54.239 15.4089 54.239 14.0021C54.239 12.5953 54.5587 11.3346 55.1982 10.2201C55.8376 9.10562 56.7146 8.23778 57.8291 7.61658C58.9436 6.99539 60.1951 6.68479 61.5837 6.68479C62.9722 6.68479 64.2237 6.99539 65.3382 7.61658C66.4527 8.23778 67.3206 9.10562 67.9418 10.2201C68.5812 11.3346 68.901 12.5953 68.901 14.0021C68.901 15.4089 68.5812 16.6696 67.9418 17.7841C67.3206 18.8986 66.4527 19.7755 65.3382 20.415C64.2237 21.0362 62.9722 21.3468 61.5837 21.3468ZM61.5837 19.6202C62.6068 19.6202 63.5203 19.3919 64.3242 18.9351C65.1464 18.4601 65.7859 17.7932 66.2426 16.9345C66.6994 16.0758 66.9278 15.0983 66.9278 14.0021C66.9278 12.9059 66.6994 11.9284 66.2426 11.0697C65.7859 10.211 65.1464 9.55324 64.3242 9.09648C63.5203 8.62145 62.6068 8.38394 61.5837 8.38394C60.5605 8.38394 59.6379 8.62145 58.8157 9.09648C58.0118 9.55324 57.3723 10.211 56.8973 11.0697C56.4406 11.9284 56.2122 12.9059 56.2122 14.0021C56.2122 15.0983 56.4406 16.0758 56.8973 16.9345C57.3723 17.7932 58.0118 18.4601 58.8157 18.9351C59.6379 19.3919 60.5605 19.6202 61.5837 19.6202Z" fill="#202020"/>
<path d="M79.0888 21.3468C77.6637 21.3468 76.3848 21.0362 75.252 20.415C74.1375 19.7938 73.2605 18.926 72.6211 17.8115C71.9816 16.6787 71.6619 15.4089 71.6619 14.0021C71.6619 12.5953 71.9816 11.3346 72.6211 10.2201C73.2605 9.10562 74.1375 8.23778 75.252 7.61658C76.3848 6.99539 77.6637 6.68479 79.0888 6.68479C80.3312 6.68479 81.4365 6.93144 82.4049 7.42474C83.3915 7.89977 84.168 8.60318 84.7344 9.53497L83.2819 10.5216C82.8068 9.80903 82.2039 9.27919 81.4731 8.93205C80.7423 8.56664 79.9475 8.38394 79.0888 8.38394C78.0474 8.38394 77.1065 8.62145 76.266 9.09648C75.4438 9.55324 74.7952 10.211 74.3202 11.0697C73.8635 11.9284 73.6351 12.9059 73.6351 14.0021C73.6351 15.1166 73.8635 16.1032 74.3202 16.9619C74.7952 17.8023 75.4438 18.4601 76.266 18.9351C77.1065 19.3919 78.0474 19.6202 79.0888 19.6202C79.9475 19.6202 80.7423 19.4467 81.4731 19.0995C82.2039 18.7524 82.8068 18.2226 83.2819 17.51L84.7344 18.4966C84.168 19.4284 83.3915 20.1409 82.4049 20.6342C81.4183 21.1093 80.3129 21.3468 79.0888 21.3468Z" fill="#202020"/>
<path d="M88.639 21.3468C88.2371 21.3468 87.8899 21.2006 87.5976 20.9083C87.3235 20.616 87.1865 20.2597 87.1865 19.8395C87.1865 19.4193 87.3235 19.0721 87.5976 18.7981C87.8899 18.5057 88.2371 18.3596 88.639 18.3596C89.041 18.3596 89.3881 18.5057 89.6804 18.7981C89.9727 19.0721 90.1189 19.4193 90.1189 19.8395C90.1189 20.2597 89.9727 20.616 89.6804 20.9083C89.3881 21.2006 89.041 21.3468 88.639 21.3468Z" fill="#202020"/>
<path d="M101.737 6.68479C103.089 6.68479 104.313 6.99539 105.409 7.61658C106.505 8.21951 107.364 9.07821 107.985 10.1927C108.606 11.3072 108.917 12.577 108.917 14.0021C108.917 15.4455 108.606 16.7244 107.985 17.8389C107.364 18.9534 106.505 19.8212 105.409 20.4424C104.331 21.0453 103.107 21.3468 101.737 21.3468C100.567 21.3468 99.5075 21.1093 98.5575 20.6342C97.6257 20.1409 96.8583 19.4284 96.2554 18.4966V26.5265H94.3096V6.79441H96.1732V9.6446C96.7579 8.69454 97.5252 7.96372 98.4753 7.45215C99.4436 6.94058 100.531 6.68479 101.737 6.68479ZM101.599 19.6202C102.604 19.6202 103.518 19.3919 104.34 18.9351C105.162 18.4601 105.802 17.7932 106.258 16.9345C106.733 16.0758 106.971 15.0983 106.971 14.0021C106.971 12.9059 106.733 11.9375 106.258 11.0971C105.802 10.2384 105.162 9.57152 104.34 9.09648C103.518 8.62145 102.604 8.38394 101.599 8.38394C100.576 8.38394 99.6537 8.62145 98.8315 9.09648C98.0276 9.57152 97.3882 10.2384 96.9131 11.0971C96.4564 11.9375 96.228 12.9059 96.228 14.0021C96.228 15.0983 96.4564 16.0758 96.9131 16.9345C97.3882 17.7932 98.0276 18.4601 98.8315 18.9351C99.6537 19.3919 100.576 19.6202 101.599 19.6202Z" fill="#202020"/>
<path d="M130.5 13.9747C130.5 16.2219 129.76 17.985 128.28 19.264C126.8 20.5429 124.708 21.2372 122.004 21.3468V26.5265H120.113V21.3742C117.428 21.2646 115.345 20.5703 113.865 19.2914C112.403 17.9942 111.672 16.2219 111.672 13.9747C111.672 11.7457 112.403 10.0009 113.865 8.74021C115.345 7.47955 117.428 6.79441 120.113 6.68479V0.874802H122.004V6.68479C124.708 6.81268 126.8 7.50696 128.28 8.76762C129.76 10.0283 130.5 11.764 130.5 13.9747ZM113.591 13.9747C113.591 15.6921 114.139 17.035 115.235 18.0033C116.35 18.9716 117.976 19.5198 120.113 19.6476V8.41135C117.994 8.52097 116.377 9.05994 115.262 10.0283C114.148 10.9783 113.591 12.2938 113.591 13.9747ZM122.004 19.6476C124.142 19.538 125.768 18.999 126.882 18.0307C128.015 17.0624 128.582 15.7104 128.582 13.9747C128.582 12.2755 128.015 10.9509 126.882 10.0009C125.768 9.05081 124.142 8.52097 122.004 8.41135V19.6476Z" fill="#202020"/>
</svg>
