<svg width="26" height="26" viewBox="0 0 26 26" fill="none" xmlns="http://www.w3.org/2000/svg">
<path fill-rule="evenodd" clip-rule="evenodd" d="M9.84204 0.338579C9.12195 0.434112 8.6044 0.554247 7.89325 0.790995C6.36794 1.29867 5.0005 2.15816 3.83467 3.34195C0.439263 6.78971 -0.164952 12.0515 2.35684 16.2125C3.17496 17.5623 4.4847 18.8717 5.84955 19.704C9.29341 21.8041 13.66 21.6439 16.974 19.2959C17.2024 19.1341 17.5131 18.893 17.6645 18.7603C17.8159 18.6276 17.9589 18.5189 17.9822 18.5189C18.0055 18.5189 19.4753 19.9936 21.2485 21.796C23.0289 23.6057 24.5535 25.1159 24.6536 25.1689C25.2556 25.4874 25.9163 24.9751 25.7935 24.2851C25.7642 24.1205 25.3771 23.7095 22.4315 20.7152L19.1027 17.3313L19.2707 17.0943C20.2974 15.6459 20.8231 14.502 21.1689 12.9636C21.3333 12.2324 21.3905 11.6292 21.39 10.6323C21.3895 9.53595 21.2914 8.81831 21.0036 7.805C19.9782 4.1945 16.9515 1.30968 13.3479 0.508068C12.2811 0.270774 10.8681 0.202472 9.84204 0.338579ZM12.4008 1.43329C14.4446 1.74959 16.1759 2.62997 17.6123 4.08345C19.048 5.53623 19.9325 7.30487 20.2548 9.36745C20.3383 9.90156 20.3378 11.5369 20.254 12.0707C19.9408 14.0666 19.086 15.806 17.7111 17.2456C16.2948 18.7285 14.4751 19.6784 12.4066 20.0146C11.8427 20.1062 10.3267 20.0907 9.72021 19.9871C7.68217 19.6389 5.99825 18.7716 4.59608 17.3479C3.11878 15.8478 2.22724 14.003 1.94943 11.8711C1.8552 11.1482 1.87782 9.89169 1.99789 9.17758C2.60997 5.53786 5.26932 2.58474 8.77806 1.64861C9.85533 1.36116 11.3577 1.27188 12.4008 1.43329Z" fill="white"/>
</svg>
