<svg width="27" height="27" viewBox="0 0 27 27" fill="none" xmlns="http://www.w3.org/2000/svg">
<path d="M17.9331 19.6935C17.7817 19.8262 17.4709 20.0672 17.2426 20.229C13.9285 22.5771 9.56197 22.7373 6.1181 20.6371M17.9331 19.6935L13.6164 1.44124C12.5496 1.20395 11.1367 1.13565 10.1106 1.27175C9.39051 1.36729 8.87295 1.48742 8.16181 1.72417C6.63649 2.23184 5.26906 3.09134 4.10322 4.27513M17.9331 19.6935C18.0845 19.5607 18.2275 19.4521 18.2508 19.4521C18.2741 19.4521 19.7438 20.9268 21.517 22.7291C23.2975 24.5389 24.822 26.0491 24.9221 26.102L17.9331 19.6935ZM6.1181 20.6371C4.75326 19.8048 3.44352 18.4955 2.62539 17.1456M6.1181 20.6371L5.98794 20.8506C9.51781 23.0032 13.9923 22.8382 17.3871 20.433C17.62 20.268 17.938 20.0216 18.0979 19.8815L18.0979 19.8815C18.1435 19.8415 18.1878 19.8042 18.2274 19.7723C18.2613 19.8053 18.3009 19.8442 18.3461 19.8887C18.5141 20.0544 18.7548 20.2944 19.0506 20.5912C19.6421 21.1847 20.4525 22.0035 21.3388 22.9045C22.2296 23.8099 23.0566 24.6407 23.6738 25.252C23.9822 25.5576 24.2389 25.8089 24.4252 25.9876C24.5181 26.0768 24.5946 26.1489 24.6517 26.2009C24.6801 26.2268 24.7052 26.249 24.7258 26.2665L24.7272 26.2676C24.7405 26.2788 24.772 26.3055 24.8052 26.323L24.8052 26.323C25.6108 26.7493 26.4635 26.0473 26.3082 25.1745L26.3082 25.1745C26.2886 25.0646 26.2199 24.964 26.1341 24.8563C26.0407 24.7391 25.8913 24.5722 25.6566 24.3231C25.1857 23.823 24.3502 22.9694 22.8783 21.4731L19.6962 18.2383L19.7432 18.172C20.7866 16.7001 21.3274 15.5261 21.6814 13.9516C21.8509 13.1976 21.909 12.5751 21.9085 11.5653C21.908 10.4469 21.807 9.70626 21.5127 8.66988L21.2722 8.73818L21.5127 8.66987C20.4627 4.9729 17.3658 2.01917 13.6707 1.19721L13.6707 1.19721C12.5769 0.953908 11.1344 0.883753 10.0777 1.02392L10.1106 1.2717L10.0777 1.02392C9.34149 1.1216 8.80851 1.24538 8.08286 1.48696C6.51879 2.00753 5.11768 2.88875 3.9251 4.09971L4.10322 4.27513M6.1181 20.6371L5.98794 20.8506C4.58935 19.9977 3.25075 18.6598 2.41159 17.2752L2.62539 17.1456M2.62539 17.1456C0.103603 12.9847 0.707817 7.72288 4.10322 4.27513M2.62539 17.1456L2.41159 17.2752C-0.169036 13.0172 0.448782 7.62962 3.9251 4.09971L4.10322 4.27513M12.6311 2.61352C14.6226 2.92174 16.3048 3.7775 17.703 5.19235C19.101 6.60694 19.9619 8.32725 20.2764 10.3392C20.3147 10.5848 20.3358 11.1093 20.3357 11.6523C20.3355 12.1953 20.3141 12.7197 20.2756 12.9652C19.9701 14.9115 19.138 16.6039 17.7988 18.0061C16.421 19.4487 14.6512 20.3733 12.6351 20.701C12.6351 20.701 12.6351 20.701 12.6351 20.701L12.6752 20.9478C12.1113 21.0394 10.5953 21.0239 9.98876 20.9203C7.95073 20.5721 6.2668 19.7048 4.86463 18.2811L12.6311 2.61352ZM12.6311 2.61352L12.6694 2.36646L12.6311 2.61352C12.6311 2.61352 12.6311 2.61352 12.6311 2.61352Z" fill="#9F5830" stroke="#9F5830" stroke-width="0.5"/>
</svg>
