<svg width="41" height="41" viewBox="0 0 41 41" fill="none" xmlns="http://www.w3.org/2000/svg">
<path fill-rule="evenodd" clip-rule="evenodd" d="M19.4609 0.874473C16.3785 1.45861 14.0037 3.6866 13.2174 6.7319C13.0845 7.24659 13.0495 7.67724 13.0187 9.17298L12.9813 10.9891H8.55592H4.13057L2.46774 23.4289C1.55318 30.2707 0.806478 36.03 0.808353 36.2272C0.813431 36.7467 1.08144 37.7179 1.37367 38.2757C1.70566 38.9093 2.65334 39.857 3.28701 40.189C3.55275 40.3283 4.04175 40.5116 4.37358 40.5965C4.96475 40.7477 5.29572 40.7508 20.7631 40.7495C38.2485 40.7479 37.105 40.7818 38.2288 40.2317C39.6869 39.5177 40.7851 37.7933 40.8083 36.1811C40.8108 36.0093 40.0647 30.2707 39.1503 23.4289L37.4877 10.9891H33.0542H28.6207V9.47614C28.6207 7.37415 28.433 6.38327 27.7934 5.1068C26.7556 3.03551 24.8873 1.53813 22.6449 0.980553C21.8053 0.77183 20.2722 0.720743 19.4609 0.874473ZM21.9344 4.03499C22.8168 4.26074 23.416 4.60749 24.0927 5.28412C24.7693 5.96075 25.1161 6.56004 25.3418 7.44243C25.4687 7.93845 25.4961 8.30755 25.4961 9.51746V10.9891H20.8092H16.1223V9.51746C16.1223 7.8487 16.2354 7.2123 16.6841 6.35585C17.0164 5.72156 17.9637 4.7745 18.5987 4.44181C19.635 3.89891 20.8315 3.753 21.9344 4.03499ZM12.9977 16.4962V18.8787H14.56H16.1223V16.4962V14.1137H20.8092H25.4961V16.4962V18.8787H27.0584H28.6207V16.4962V14.1137H31.6876H34.7545L36.2291 25.1474C37.8779 37.4841 37.8027 36.5681 37.2142 37.1566C37.0474 37.3234 36.7768 37.4971 36.613 37.5426C36.1952 37.6586 5.42321 37.6586 5.00545 37.5426C4.84157 37.4971 4.57098 37.3234 4.4042 37.1566C3.81569 36.5681 3.74054 37.4841 5.38931 25.1474L6.86395 14.1137H9.93081H12.9977V16.4962Z" fill="#9F5830"/>
</svg>
