<svg width="51" height="51" viewBox="0 0 51 51" fill="none" xmlns="http://www.w3.org/2000/svg">
<path fill-rule="evenodd" clip-rule="evenodd" d="M23.0236 0.330228C18.2833 0.821445 13.7944 2.6289 9.9742 5.58452C8.89012 6.42324 6.57218 8.74118 5.73346 9.82526C4.19436 11.8146 2.71278 14.4654 1.88492 16.7112C1.42159 17.9681 0.836747 20.3003 0.609189 21.7985C0.359031 23.4449 0.358737 27.0947 0.608602 28.7446C0.832344 30.2224 1.42384 32.5714 1.89119 33.8382C2.72667 36.1032 4.19475 38.7309 5.73453 40.7178C6.5303 41.7448 8.76587 44.0057 9.76729 44.7964C11.7888 46.3924 14.5408 47.9476 16.8538 48.8008C18.1226 49.269 20.4717 49.8602 21.9474 50.0828C23.3933 50.301 27.1488 50.3334 28.5022 50.1393C33.2136 49.4639 37.194 47.7951 40.878 44.9511C41.8836 44.1748 44.1454 41.9353 44.9444 40.9247C46.5216 38.9302 48.1122 36.1165 48.9507 33.8382C49.418 32.5685 50.0091 30.2191 50.2324 28.7446C50.3658 27.8633 50.4101 26.9974 50.4101 25.2715C50.4101 22.6251 50.2761 21.4994 49.6815 19.1507C49.2092 17.2854 48.7755 16.1113 47.8767 14.2654C45.9571 10.3234 42.9851 6.93422 39.2638 4.4432C36.1418 2.3535 32.7944 1.06573 28.9425 0.472673C27.7128 0.283269 24.2747 0.2006 23.0236 0.330228ZM27.4261 3.26021C35.1035 3.96392 41.9014 8.6726 45.2841 15.63C46.3152 17.7508 46.9006 19.6268 47.3007 22.092C47.5445 23.5947 47.5445 26.9484 47.3007 28.4511C46.9006 30.9163 46.3152 32.7923 45.2841 34.9131C43.1012 39.4029 39.5589 42.9438 35.057 45.1364C32.9447 46.1652 31.066 46.7515 28.6 47.1518C27.0962 47.3958 23.743 47.3957 22.2409 47.1515C18.008 46.4633 14.3318 44.7979 11.1369 42.1214C6.26547 38.0401 3.31054 31.6782 3.31054 25.2715C3.31054 18.8621 6.25129 12.5295 11.1369 8.41824C15.6766 4.59817 21.5909 2.72536 27.4261 3.26021ZM24.7123 6.39594C24.0486 6.74638 23.953 7.09035 23.953 9.12918C23.953 11.1877 24.0468 11.5171 24.7331 11.8672C25.2221 12.1167 25.6189 12.1167 26.1079 11.8672C26.7941 11.5171 26.888 11.1877 26.888 9.12918C26.888 7.54948 26.8669 7.31909 26.691 6.97433C26.33 6.2667 25.4463 6.00843 24.7123 6.39594ZM12.2367 11.5745C11.2452 12.1789 11.3022 13.5811 12.3393 14.1033C12.9644 14.4179 13.4668 14.3324 13.9741 13.8251C14.4813 13.3179 14.5669 12.8154 14.2522 12.1904C13.8673 11.426 12.9433 11.1436 12.2367 11.5745ZM37.1588 11.5621C36.6715 11.8234 36.3358 12.5044 36.4272 13.0461C36.5213 13.6031 37.0871 14.1704 37.6419 14.2641C38.1872 14.3562 38.8831 14.0155 39.1348 13.5332C39.8098 12.2399 38.4411 10.8746 37.1588 11.5621ZM24.7123 15.2009C24.4887 15.3189 24.27 15.544 24.1497 15.7796C23.9607 16.1502 23.953 16.3498 23.953 20.8701C23.953 24.9824 23.9727 25.6142 24.1091 25.8879C24.3246 26.3197 33.1116 35.1207 33.5611 35.3548C33.7608 35.4588 34.0597 35.544 34.2254 35.544C34.7109 35.544 35.2745 35.1979 35.496 34.7638C35.7433 34.279 35.7456 33.8765 35.5038 33.4122C35.3999 33.2126 33.4188 31.1564 31.1013 28.8428L26.888 24.6365V20.401C26.888 16.3489 26.8795 16.1486 26.691 15.7792C26.33 15.0716 25.4463 14.8133 24.7123 15.2009ZM7.10243 24.0058C6.68938 24.2239 6.34315 24.8011 6.34315 25.2715C6.34315 25.757 6.68918 26.3206 7.12327 26.5421C7.46803 26.718 7.69842 26.739 9.27812 26.739C11.3366 26.739 11.666 26.6452 12.0162 25.9589C12.2656 25.4699 12.2656 25.0731 12.0162 24.5842C11.6645 23.8948 11.3391 23.8034 9.25758 23.8084C7.66995 23.8122 7.42704 23.8345 7.10243 24.0058ZM39.3871 24.0058C38.9741 24.2239 38.6279 24.8011 38.6279 25.2715C38.6279 25.757 38.9739 26.3206 39.408 26.5421C39.7527 26.718 39.9831 26.739 41.5628 26.739C43.1425 26.739 43.3729 26.718 43.7177 26.5421C44.1518 26.3206 44.4978 25.757 44.4978 25.2715C44.4978 24.7861 44.1518 24.2225 43.7177 24.001C43.3713 23.8243 43.1476 23.8045 41.5423 23.8084C39.9547 23.8122 39.7118 23.8345 39.3871 24.0058ZM12.3212 36.4444C11.5754 36.8425 11.3016 37.7636 11.7234 38.4554C12.3203 39.4344 13.7048 39.3879 14.2476 38.3708C14.9105 37.1285 13.5635 35.7815 12.3212 36.4444ZM37.3905 36.3356C37.221 36.3847 36.9503 36.5753 36.7889 36.7591C35.9566 37.7072 36.6255 39.1645 37.8926 39.1634C39.3769 39.162 39.8518 37.1284 38.5265 36.4489C38.0679 36.2137 37.8771 36.1947 37.3905 36.3356ZM24.7123 38.6807C24.0486 39.0311 23.953 39.3751 23.953 41.4139C23.953 42.9936 23.974 43.224 24.1499 43.5688C24.3714 44.0028 24.935 44.3489 25.4205 44.3489C25.9059 44.3489 26.4695 44.0028 26.691 43.5688C26.8669 43.224 26.888 42.9936 26.888 41.4139C26.888 39.8342 26.8669 39.6038 26.691 39.259C26.33 38.5514 25.4463 38.2931 24.7123 38.6807Z" fill="#9F5830"/>
</svg>
