<svg width="217" height="23" viewBox="0 0 217 23" fill="none" xmlns="http://www.w3.org/2000/svg">
<path d="M8.40289 17.3926C7.14288 17.3926 6.00288 17.1166 4.98288 16.5646C3.97488 16.0006 3.18288 15.2326 2.60688 14.2606C2.03088 13.2766 1.74288 12.1726 1.74288 10.9486C1.74288 9.72463 2.03088 8.62663 2.60688 7.65463C3.18288 6.67063 3.98088 5.90263 5.00088 5.35063C6.02089 4.78663 7.16089 4.50463 8.42088 4.50463C9.40488 4.50463 10.3049 4.67263 11.1209 5.00863C11.9369 5.33263 12.6329 5.81863 13.2089 6.46663L12.0389 7.60063C11.0909 6.60463 9.90889 6.10663 8.49289 6.10663C7.55688 6.10663 6.71088 6.31663 5.95489 6.73663C5.19888 7.15663 4.60488 7.73863 4.17288 8.48263C3.75288 9.21463 3.54288 10.0366 3.54288 10.9486C3.54288 11.8606 3.75288 12.6886 4.17288 13.4326C4.60488 14.1646 5.19888 14.7406 5.95489 15.1606C6.71088 15.5806 7.55688 15.7906 8.49289 15.7906C9.89689 15.7906 11.0789 15.2866 12.0389 14.2786L13.2089 15.4126C12.6329 16.0606 11.9309 16.5526 11.1029 16.8886C10.2869 17.2246 9.38688 17.3926 8.40289 17.3926ZM26.3988 7.70863V17.2486H24.8328V10.2826L21.2688 16.1686H20.5128L16.9848 10.2646V17.2486H15.4008V7.70863H17.1828L20.9268 14.1526L24.7788 7.70863H26.3988ZM33.8481 17.3566C32.9001 17.3566 32.0481 17.1466 31.2921 16.7266C30.5361 16.3066 29.9421 15.7306 29.5101 14.9986C29.0901 14.2546 28.8801 13.4146 28.8801 12.4786C28.8801 11.5426 29.0901 10.7086 29.5101 9.97663C29.9421 9.23263 30.5361 8.65663 31.2921 8.24863C32.0481 7.82863 32.9001 7.61863 33.8481 7.61863C34.7961 7.61863 35.6421 7.82863 36.3861 8.24863C37.1421 8.65663 37.7301 9.23263 38.1501 9.97663C38.5821 10.7086 38.7981 11.5426 38.7981 12.4786C38.7981 13.4146 38.5821 14.2546 38.1501 14.9986C37.7301 15.7306 37.1421 16.3066 36.3861 16.7266C35.6421 17.1466 34.7961 17.3566 33.8481 17.3566ZM33.8481 15.8446C34.4601 15.8446 35.0061 15.7066 35.4861 15.4306C35.9781 15.1426 36.3621 14.7466 36.6381 14.2426C36.9141 13.7266 37.0521 13.1386 37.0521 12.4786C37.0521 11.8186 36.9141 11.2366 36.6381 10.7326C36.3621 10.2166 35.9781 9.82063 35.4861 9.54463C35.0061 9.26863 34.4601 9.13063 33.8481 9.13063C33.2361 9.13063 32.6841 9.26863 32.1921 9.54463C31.7121 9.82063 31.3281 10.2166 31.0401 10.7326C30.7641 11.2366 30.6261 11.8186 30.6261 12.4786C30.6261 13.1386 30.7641 13.7266 31.0401 14.2426C31.3281 14.7466 31.7121 15.1426 32.1921 15.4306C32.6841 15.7066 33.2361 15.8446 33.8481 15.8446ZM48.0518 9.22063H44.5598V17.2486H42.8318V9.22063H39.3398V7.70863H48.0518V9.22063ZM54.8768 7.61863C55.8008 7.61863 56.6288 7.82263 57.3608 8.23063C58.0928 8.63863 58.6628 9.20863 59.0708 9.94063C59.4908 10.6726 59.7008 11.5186 59.7008 12.4786C59.7008 13.4386 59.4908 14.2906 59.0708 15.0346C58.6628 15.7666 58.0928 16.3366 57.3608 16.7446C56.6288 17.1526 55.8008 17.3566 54.8768 17.3566C54.1928 17.3566 53.5628 17.2246 52.9868 16.9606C52.4228 16.6966 51.9428 16.3126 51.5468 15.8086V20.7406H49.8188V7.70863H51.4748V9.22063C51.8588 8.69263 52.3448 8.29663 52.9328 8.03263C53.5208 7.75663 54.1688 7.61863 54.8768 7.61863ZM54.7328 15.8446C55.3448 15.8446 55.8908 15.7066 56.3708 15.4306C56.8628 15.1426 57.2468 14.7466 57.5228 14.2426C57.8108 13.7266 57.9548 13.1386 57.9548 12.4786C57.9548 11.8186 57.8108 11.2366 57.5228 10.7326C57.2468 10.2166 56.8628 9.82063 56.3708 9.54463C55.8908 9.26863 55.3448 9.13063 54.7328 9.13063C54.1328 9.13063 53.5868 9.27463 53.0948 9.56263C52.6148 9.83863 52.2308 10.2286 51.9428 10.7326C51.6668 11.2366 51.5288 11.8186 51.5288 12.4786C51.5288 13.1386 51.6668 13.7266 51.9428 14.2426C52.2188 14.7466 52.6028 15.1426 53.0948 15.4306C53.5868 15.7066 54.1328 15.8446 54.7328 15.8446ZM70.8334 12.5326C70.8334 12.6646 70.8214 12.8386 70.7974 13.0546H63.0574C63.1654 13.8946 63.5314 14.5726 64.1554 15.0886C64.7914 15.5926 65.5774 15.8446 66.5134 15.8446C67.6534 15.8446 68.5714 15.4606 69.2674 14.6926L70.2214 15.8086C69.7894 16.3126 69.2494 16.6966 68.6014 16.9606C67.9654 17.2246 67.2514 17.3566 66.4594 17.3566C65.4514 17.3566 64.5574 17.1526 63.7774 16.7446C62.9974 16.3246 62.3914 15.7426 61.9594 14.9986C61.5394 14.2546 61.3294 13.4146 61.3294 12.4786C61.3294 11.5546 61.5334 10.7206 61.9414 9.97663C62.3614 9.23263 62.9314 8.65663 63.6514 8.24863C64.3834 7.82863 65.2054 7.61863 66.1174 7.61863C67.0294 7.61863 67.8394 7.82863 68.5474 8.24863C69.2674 8.65663 69.8254 9.23263 70.2214 9.97663C70.6294 10.7206 70.8334 11.5726 70.8334 12.5326ZM66.1174 9.07663C65.2894 9.07663 64.5934 9.32863 64.0294 9.83263C63.4774 10.3366 63.1534 10.9966 63.0574 11.8126H69.1774C69.0814 11.0086 68.7514 10.3546 68.1874 9.85063C67.6354 9.33463 66.9454 9.07663 66.1174 9.07663ZM80.2198 9.22063H76.7278V17.2486H74.9998V9.22063H71.5078V7.70863H80.2198V9.22063ZM86.3967 10.9486C87.6087 10.9606 88.5327 11.2366 89.1687 11.7766C89.8047 12.3166 90.1227 13.0786 90.1227 14.0626C90.1227 15.0946 89.7747 15.8926 89.0787 16.4566C88.3947 17.0086 87.4107 17.2786 86.1267 17.2666L81.9867 17.2486V7.70863H83.7147V10.9306L86.3967 10.9486ZM85.9827 15.9526C86.7627 15.9646 87.3507 15.8086 87.7467 15.4846C88.1547 15.1606 88.3587 14.6806 88.3587 14.0446C88.3587 13.4206 88.1607 12.9646 87.7647 12.6766C87.3807 12.3886 86.7867 12.2386 85.9827 12.2266L83.7147 12.1906V15.9346L85.9827 15.9526ZM101.854 11.7046H99.2262V17.2486H97.4622V4.64863H99.2262V10.1206H101.89L105.85 4.64863H107.776L103.276 10.7506L107.992 17.2486H105.94L101.854 11.7046ZM113.074 7.61863C114.394 7.61863 115.402 7.94263 116.098 8.59063C116.806 9.23863 117.16 10.2046 117.16 11.4886V17.2486H115.522V15.9886C115.234 16.4326 114.82 16.7746 114.28 17.0146C113.752 17.2426 113.122 17.3566 112.39 17.3566C111.322 17.3566 110.464 17.0986 109.816 16.5826C109.18 16.0666 108.862 15.3886 108.862 14.5486C108.862 13.7086 109.168 13.0366 109.78 12.5326C110.392 12.0166 111.364 11.7586 112.696 11.7586H115.432V11.4166C115.432 10.6726 115.216 10.1026 114.784 9.70663C114.352 9.31063 113.716 9.11263 112.876 9.11263C112.312 9.11263 111.76 9.20863 111.22 9.40063C110.68 9.58063 110.224 9.82663 109.852 10.1386L109.132 8.84263C109.624 8.44663 110.212 8.14663 110.896 7.94263C111.58 7.72663 112.306 7.61863 113.074 7.61863ZM112.678 16.0246C113.338 16.0246 113.908 15.8806 114.388 15.5926C114.868 15.2926 115.216 14.8726 115.432 14.3326V13.0006H112.768C111.304 13.0006 110.572 13.4926 110.572 14.4766C110.572 14.9566 110.758 15.3346 111.13 15.6106C111.502 15.8866 112.018 16.0246 112.678 16.0246ZM127.382 9.22063H123.89V17.2486H122.162V9.22063H118.67V7.70863H127.382V9.22063ZM132.551 7.61863C133.871 7.61863 134.879 7.94263 135.575 8.59063C136.283 9.23863 136.637 10.2046 136.637 11.4886V17.2486H134.999V15.9886C134.711 16.4326 134.297 16.7746 133.757 17.0146C133.229 17.2426 132.599 17.3566 131.867 17.3566C130.799 17.3566 129.941 17.0986 129.293 16.5826C128.657 16.0666 128.339 15.3886 128.339 14.5486C128.339 13.7086 128.645 13.0366 129.257 12.5326C129.869 12.0166 130.841 11.7586 132.173 11.7586H134.909V11.4166C134.909 10.6726 134.693 10.1026 134.261 9.70663C133.829 9.31063 133.193 9.11263 132.353 9.11263C131.789 9.11263 131.237 9.20863 130.697 9.40063C130.157 9.58063 129.701 9.82663 129.329 10.1386L128.609 8.84263C129.101 8.44663 129.689 8.14663 130.373 7.94263C131.057 7.72663 131.783 7.61863 132.551 7.61863ZM132.155 16.0246C132.815 16.0246 133.385 15.8806 133.865 15.5926C134.345 15.2926 134.693 14.8726 134.909 14.3326V13.0006H132.245C130.781 13.0006 130.049 13.4926 130.049 14.4766C130.049 14.9566 130.235 15.3346 130.607 15.6106C130.979 15.8866 131.495 16.0246 132.155 16.0246ZM147.938 7.70863V17.2486H146.21V9.22063H142.106L141.998 11.3446C141.938 12.6286 141.824 13.7026 141.656 14.5666C141.488 15.4186 141.212 16.1026 140.828 16.6186C140.444 17.1346 139.91 17.3926 139.226 17.3926C138.914 17.3926 138.56 17.3386 138.164 17.2306L138.272 15.7726C138.428 15.8086 138.572 15.8266 138.704 15.8266C139.184 15.8266 139.544 15.6166 139.784 15.1966C140.024 14.7766 140.18 14.2786 140.252 13.7026C140.324 13.1266 140.39 12.3046 140.45 11.2366L140.612 7.70863H147.938ZM155.366 17.3566C154.418 17.3566 153.566 17.1466 152.81 16.7266C152.054 16.3066 151.46 15.7306 151.028 14.9986C150.608 14.2546 150.398 13.4146 150.398 12.4786C150.398 11.5426 150.608 10.7086 151.028 9.97663C151.46 9.23263 152.054 8.65663 152.81 8.24863C153.566 7.82863 154.418 7.61863 155.366 7.61863C156.314 7.61863 157.16 7.82863 157.904 8.24863C158.66 8.65663 159.248 9.23263 159.668 9.97663C160.1 10.7086 160.316 11.5426 160.316 12.4786C160.316 13.4146 160.1 14.2546 159.668 14.9986C159.248 15.7306 158.66 16.3066 157.904 16.7266C157.16 17.1466 156.314 17.3566 155.366 17.3566ZM155.366 15.8446C155.978 15.8446 156.524 15.7066 157.004 15.4306C157.496 15.1426 157.88 14.7466 158.156 14.2426C158.432 13.7266 158.57 13.1386 158.57 12.4786C158.57 11.8186 158.432 11.2366 158.156 10.7326C157.88 10.2166 157.496 9.82063 157.004 9.54463C156.524 9.26863 155.978 9.13063 155.366 9.13063C154.754 9.13063 154.202 9.26863 153.71 9.54463C153.23 9.82063 152.846 10.2166 152.558 10.7326C152.282 11.2366 152.144 11.8186 152.144 12.4786C152.144 13.1386 152.282 13.7266 152.558 14.2426C152.846 14.7466 153.23 15.1426 153.71 15.4306C154.202 15.7066 154.754 15.8446 155.366 15.8446ZM169.831 9.22063H164.539V17.2486H162.811V7.70863H169.831V9.22063Z" fill="#FCFCFC"/>
<path d="M215.963 11.9746C216.353 11.5841 216.353 10.9509 215.963 10.5604L209.599 4.19642C209.208 3.80589 208.575 3.80589 208.185 4.19642C207.794 4.58694 207.794 5.22011 208.185 5.61063L213.841 11.2675L208.185 16.9243C207.794 17.3149 207.794 17.948 208.185 18.3386C208.575 18.7291 209.208 18.7291 209.599 18.3386L215.963 11.9746ZM185.256 12.2675L215.256 12.2675V10.2675L185.256 10.2675V12.2675Z" fill="white"/>
</svg>
